HIERARCHY
ROOT Hips
{
	OFFSET 0.509025 88.424858 5.011631
	CHANNELS 6 Xposition Yposition Zposition Zrotation Yrotation Xrotation 
	JOINT Spine
	{
		OFFSET -0.000000 8.814246 -2.080107
		CHANNELS 3 Zrotation Yrotation Xrotation
		JOINT Spine1
		{
			OFFSET -0.000000 8.844141 0.000000
			CHANNELS 3 Zrotation Yrotation Xrotation
			JOINT Spine2
			{
				OFFSET 0.000000 11.682268 0.000000
				CHANNELS 3 Zrotation Yrotation Xrotation
				JOINT Spine3
				{
					OFFSET -0.000000 11.746700 0.000000
					CHANNELS 3 Zrotation Yrotation Xrotation
					JOINT Neck
					{
						OFFSET -0.000000 17.658264 0.000000
						CHANNELS 3 Zrotation Yrotation Xrotation
						JOINT Neck1
						{
							OFFSET 0.000000 5.101515 -0.000000
							CHANNELS 3 Zrotation Yrotation Xrotation
							JOINT Head
							{
								OFFSET -0.000000 5.101515 -0.000000
								CHANNELS 3 Zrotation Yrotation Xrotation
								JOINT HeadEnd
								{
									OFFSET 0.000000 11.655085 -0.000000
									CHANNELS 3 Zrotation Yrotation Xrotation
									End Site
									{
										OFFSET 0.000000 0.000000 0.000000
									}
								}
							}
						}
					}
					JOINT RightShoulder
					{
						OFFSET -2.625389 11.175210 -0.000000
						CHANNELS 3 Zrotation Yrotation Xrotation
						JOINT RightArm
						{
							OFFSET 0.000000 10.434715 -0.000000
							CHANNELS 3 Zrotation Yrotation Xrotation
							JOINT RightForeArm
							{
								OFFSET -0.000000 29.628420 0.000000
								CHANNELS 3 Zrotation Yrotation Xrotation
								JOINT RightHand
								{
									OFFSET -0.000000 22.857611 0.000000
									CHANNELS 3 Zrotation Yrotation Xrotation
									JOINT RightHandThumb1
									{
										OFFSET -2.867323 3.959563 2.944291
										CHANNELS 3 Zrotation Yrotation Xrotation
										JOINT RightHandThumb2
										{
											OFFSET -0.000000 3.350399 0.000000
											CHANNELS 3 Zrotation Yrotation Xrotation
											JOINT RightHandThumb3
											{
												OFFSET -0.000000 3.756509 -0.000000
												CHANNELS 3 Zrotation Yrotation Xrotation
												JOINT RightHandThumb4
												{
													OFFSET -0.000000 3.147345 0.000000
													CHANNELS 3 Zrotation Yrotation Xrotation
													End Site
													{
														OFFSET 0.000000 0.000000 0.000000
													}
												}
											}
										}
									}
									JOINT RightHandIndex1
									{
										OFFSET -0.086752 10.030893 2.345280
										CHANNELS 3 Zrotation Yrotation Xrotation
										JOINT RightHandIndex2
										{
											OFFSET 0.000000 4.061090 -0.000000
											CHANNELS 3 Zrotation Yrotation Xrotation
											JOINT RightHandIndex3
											{
												OFFSET 0.000000 3.248873 -0.000000
												CHANNELS 3 Zrotation Yrotation Xrotation
												JOINT RightHandIndex4
												{
													OFFSET 0.000000 2.639709 0.000000
													CHANNELS 3 Zrotation Yrotation Xrotation
													End Site
													{
														OFFSET 0.000000 0.000000 0.000000
													}
												}
											}
										}
									}
									JOINT RightHandMiddle1
									{
										OFFSET 0.104102 9.502952 0.006768
										CHANNELS 3 Zrotation Yrotation Xrotation
										JOINT RightHandMiddle2
										{
											OFFSET 0.000000 4.568727 0.000000
											CHANNELS 3 Zrotation Yrotation Xrotation
											JOINT RightHandMiddle3
											{
												OFFSET 0.000000 3.654981 -0.000000
												CHANNELS 3 Zrotation Yrotation Xrotation
												JOINT RightHandMiddle4
												{
													OFFSET -0.000000 2.741236 0.000000
													CHANNELS 3 Zrotation Yrotation Xrotation
													End Site
													{
														OFFSET 0.000000 0.000000 0.000000
													}
												}
											}
										}
									}
									JOINT RightHandRing1
									{
										OFFSET 0.086752 8.921708 -2.267442
										CHANNELS 3 Zrotation Yrotation Xrotation
										JOINT RightHandRing2
										{
											OFFSET 0.000000 4.061090 -0.000000
											CHANNELS 3 Zrotation Yrotation Xrotation
											JOINT RightHandRing3
											{
												OFFSET -0.000000 3.654981 0.000000
												CHANNELS 3 Zrotation Yrotation Xrotation
												JOINT RightHandRing4
												{
													OFFSET -0.000000 2.741236 0.000000
													CHANNELS 3 Zrotation Yrotation Xrotation
													End Site
													{
														OFFSET 0.000000 0.000000 0.000000
													}
												}
											}
										}
									}
									JOINT RightHandPinky1
									{
										OFFSET -0.173504 7.976997 -4.467199
										CHANNELS 3 Zrotation Yrotation Xrotation
										JOINT RightHandPinky2
										{
											OFFSET -0.000000 3.350399 0.000000
											CHANNELS 3 Zrotation Yrotation Xrotation
											JOINT RightHandPinky3
											{
												OFFSET 0.000000 2.842763 0.000000
												CHANNELS 3 Zrotation Yrotation Xrotation
												JOINT RightHandPinky4
												{
													OFFSET 0.000000 2.639709 0.000000
													CHANNELS 3 Zrotation Yrotation Xrotation
													End Site
													{
														OFFSET 0.000000 0.000000 0.000000
													}
												}
											}
										}
									}
									JOINT RightForeArmEnd
									{
										OFFSET 0.000000 0.000000 0.000000
										CHANNELS 3 Zrotation Yrotation Xrotation
										End Site
										{
											OFFSET 0.000000 0.000000 0.000000
										}
									}
								}
								JOINT RightArmEnd
								{
									OFFSET 0.000000 0.000000 0.000000
									CHANNELS 3 Zrotation Yrotation Xrotation
									End Site
									{
										OFFSET 0.000000 0.000000 0.000000
									}
								}
							}
						}
					}
					JOINT LeftShoulder
					{
						OFFSET 2.625389 11.175210 0.000000
						CHANNELS 3 Zrotation Yrotation Xrotation
						JOINT LeftArm
						{
							OFFSET -0.000000 10.813635 -0.000000
							CHANNELS 3 Zrotation Yrotation Xrotation
							JOINT LeftForeArm
							{
								OFFSET -0.000000 28.724781 -0.000000
								CHANNELS 3 Zrotation Yrotation Xrotation
								JOINT LeftHand
								{
									OFFSET 0.644384 25.716167 -0.328871
									CHANNELS 3 Zrotation Yrotation Xrotation
									JOINT LeftHandThumb1
									{
										OFFSET 2.867323 3.959563 2.944291
										CHANNELS 3 Zrotation Yrotation Xrotation
										JOINT LeftHandThumb2
										{
											OFFSET 0.000000 3.350399 0.000000
											CHANNELS 3 Zrotation Yrotation Xrotation
											JOINT LeftHandThumb3
											{
												OFFSET -0.000000 3.756509 -0.000000
												CHANNELS 3 Zrotation Yrotation Xrotation
												JOINT LeftHandThumb4
												{
													OFFSET 0.000000 3.100000 0.000000
													CHANNELS 3 Zrotation Yrotation Xrotation
													End Site
													{
														OFFSET 0.000000 0.000000 0.000000
													}
												}
											}
										}
									}
									JOINT LeftHandIndex1
									{
										OFFSET 0.086752 10.030893 2.345280
										CHANNELS 3 Zrotation Yrotation Xrotation
										JOINT LeftHandIndex2
										{
											OFFSET 0.000000 4.061090 0.000000
											CHANNELS 3 Zrotation Yrotation Xrotation
											JOINT LeftHandIndex3
											{
												OFFSET -0.000000 3.248873 -0.000000
												CHANNELS 3 Zrotation Yrotation Xrotation
												JOINT LeftHandIndex4
												{
													OFFSET 0.000000 2.639709 0.000000
													CHANNELS 3 Zrotation Yrotation Xrotation
													End Site
													{
														OFFSET 0.000000 0.000000 0.000000
													}
												}
											}
										}
									}
									JOINT LeftHandMiddle1
									{
										OFFSET -0.104102 9.502952 0.006768
										CHANNELS 3 Zrotation Yrotation Xrotation
										JOINT LeftHandMiddle2
										{
											OFFSET -0.000000 4.568727 -0.000000
											CHANNELS 3 Zrotation Yrotation Xrotation
											JOINT LeftHandMiddle3
											{
												OFFSET -0.000000 3.654981 -0.000000
												CHANNELS 3 Zrotation Yrotation Xrotation
												JOINT LeftHandMiddle4
												{
													OFFSET 0.000000 2.741236 0.000000
													CHANNELS 3 Zrotation Yrotation Xrotation
													End Site
													{
														OFFSET 0.000000 0.000000 0.000000
													}
												}
											}
										}
									}
									JOINT LeftHandRing1
									{
										OFFSET -0.086752 8.921708 -2.267442
										CHANNELS 3 Zrotation Yrotation Xrotation
										JOINT LeftHandRing2
										{
											OFFSET 0.000000 4.061090 0.000000
											CHANNELS 3 Zrotation Yrotation Xrotation
											JOINT LeftHandRing3
											{
												OFFSET 0.000000 3.654981 -0.000000
												CHANNELS 3 Zrotation Yrotation Xrotation
												JOINT LeftHandRing4
												{
													OFFSET -0.000000 2.741236 -0.000000
													CHANNELS 3 Zrotation Yrotation Xrotation
													End Site
													{
														OFFSET 0.000000 0.000000 0.000000
													}
												}
											}
										}
									}
									JOINT LeftHandPinky1
									{
										OFFSET 0.173504 7.976997 -4.467199
										CHANNELS 3 Zrotation Yrotation Xrotation
										JOINT LeftHandPinky2
										{
											OFFSET -0.000000 3.350399 -0.000000
											CHANNELS 3 Zrotation Yrotation Xrotation
											JOINT LeftHandPinky3
											{
												OFFSET 0.000000 2.842763 -0.000000
												CHANNELS 3 Zrotation Yrotation Xrotation
												JOINT LeftHandPinky4
												{
													OFFSET -0.000000 2.639709 -0.000000
													CHANNELS 3 Zrotation Yrotation Xrotation
													End Site
													{
														OFFSET 0.000000 0.000000 0.000000
													}
												}
											}
										}
									}
									JOINT LeftForeArmEnd
									{
										OFFSET 0.000000 0.000000 0.000000
										CHANNELS 3 Zrotation Yrotation Xrotation
										End Site
										{
											OFFSET 0.000000 0.000000 0.000000
										}
									}
								}
								JOINT LeftArmEnd
								{
									OFFSET 0.000000 0.000000 0.000000
									CHANNELS 3 Zrotation Yrotation Xrotation
									End Site
									{
										OFFSET 0.000000 0.000000 0.000000
									}
								}
							}
						}
					}
				}
			}
		}
	}
	JOINT RightUpLeg
	{
		OFFSET -11.289943 -0.000000 0.000000
		CHANNELS 3 Zrotation Yrotation Xrotation
		JOINT RightLeg
		{
			OFFSET 0.000000 -38.200325 -0.000000
			CHANNELS 3 Zrotation Yrotation Xrotation
			JOINT RightFoot
			{
				OFFSET -0.000000 -39.900856 0.000000
				CHANNELS 3 Zrotation Yrotation Xrotation
				JOINT RightToeBase
				{
					OFFSET 0.000000 0.000000 15.261641
					CHANNELS 3 Zrotation Yrotation Xrotation
					JOINT RightToeBaseEnd
					{
						OFFSET 0.000000 0.000000 7.370709
						CHANNELS 3 Zrotation Yrotation Xrotation
						End Site
						{
							OFFSET 0.000000 0.000000 0.000000
						}
					}
				}
				JOINT RightLegEnd
				{
					OFFSET 0.000000 0.000000 0.000000
					CHANNELS 3 Zrotation Yrotation Xrotation
					End Site
					{
						OFFSET 0.000000 0.000000 0.000000
					}
				}
			}
			JOINT RightUpLegEnd
			{
				OFFSET 0.000000 0.000000 0.000000
				CHANNELS 3 Zrotation Yrotation Xrotation
				End Site
				{
					OFFSET 0.000000 0.000000 0.000000
				}
			}
		}
	}
	JOINT LeftUpLeg
	{
		OFFSET 11.315661 0.000000 0.000000
		CHANNELS 3 Zrotation Yrotation Xrotation
		JOINT LeftLeg
		{
			OFFSET 0.000000 -38.200325 -0.000000
			CHANNELS 3 Zrotation Yrotation Xrotation
			JOINT LeftFoot
			{
				OFFSET 0.000000 -39.900856 -0.000000
				CHANNELS 3 Zrotation Yrotation Xrotation
				JOINT LeftToeBase
				{
					OFFSET 0.000000 -0.000000 15.261641
					CHANNELS 3 Zrotation Yrotation Xrotation
					JOINT LeftToeBaseEnd
					{
						OFFSET -0.000000 0.000000 7.539996
						CHANNELS 3 Zrotation Yrotation Xrotation
						End Site
						{
							OFFSET 0.000000 0.000000 0.000000
						}
					}
				}
				JOINT LeftLegEnd
				{
					OFFSET 0.000000 0.000000 0.000000
					CHANNELS 3 Zrotation Yrotation Xrotation
					End Site
					{
						OFFSET 0.000000 0.000000 0.000000
					}
				}
			}
			JOINT LeftUpLegEnd
			{
				OFFSET 0.000000 0.000000 0.000000
				CHANNELS 3 Zrotation Yrotation Xrotation
				End Site
				{
					OFFSET 0.000000 0.000000 0.000000
				}
			}
		}
	}
}
MOTION
Frames: 4
Frame Time: 0.016667
1.858027 88.000420 6.323664 0.242157 -0.399109 -16.738977 -0.662119 -0.101931 9.569769 0.133785 -0.086358 2.582550 1.969617 -1.080718 11.742801 1.410671 -0.345604 6.000595 -8.886107 4.119500 6.539967 0.037762 1.987305 -2.988770 -1.636653 -0.477785 -20.262352 0.000000 0.000000 0.000000 91.354065 -0.397251 8.193256 65.354477 -21.371811 7.491196 -0.023489 12.627347 27.500677 6.134115 26.589649 -7.507124 9.934177 -1.780599 40.190918 0.000000 0.000016 -24.283876 -0.000017 0.000053 -16.901228 0.000010 -0.000002 -0.000016 8.431984 17.154119 -8.658101 7.892176 -0.806215 -2.343600 7.633180 0.211282 -2.223161 -0.000004 0.000025 -0.000019 9.322749 7.126930 -9.645243 7.726542 -0.938622 -0.945518 7.788421 0.072385 -0.801754 0.000016 0.000074 0.000010 15.197436 -9.221300 -10.811600 9.328035 1.905747 1.407966 9.183885 -0.116332 1.074819 -0.000018 -0.000656 0.000017 21.486494 -25.972914 -13.666938 9.768471 3.636389 4.309840 9.640678 -0.405837 3.650235 -0.000826 0.000000 0.000026 0.000000 0.000000 0.000000 0.000000 0.000000 0.000000 -92.207565 0.761122 12.480283 -56.907063 38.467323 8.616076 -1.171509 -13.429947 42.627453 -8.941567 -6.962234 -14.354347 -10.504728 1.863941 39.906406 0.000016 0.000033 -25.610201 -0.000037 -0.000021 -17.738155 -0.000148 0.000008 0.000238 -15.430460 16.931286 -9.937237 -8.132436 -0.776792 2.536556 -8.022138 0.217268 2.380341 -0.000018 0.000026 -0.000003 -13.380666 7.025473 -11.126761 -8.166870 -0.936639 0.989124 -8.035045 0.074387 0.849671 -0.000617 -0.000038 0.000014 -12.432491 -9.109593 -11.161302 -9.627413 1.916958 -1.438728 -9.580835 -0.106298 -1.101647 0.000024 0.000009 -0.000003 -9.330188 -26.414051 -14.128463 -9.910668 3.673682 -4.160434 -9.951614 -0.347254 -3.540291 -0.000468 0.000003 -0.000045 0.000000 0.000000 0.000000 0.000000 0.000000 0.000000 -3.077402 3.929986 14.948789 -0.199583 -0.701338 13.973860 -0.772080 -0.917794 14.302896 -0.763525 0.814956 -19.556307 0.000000 0.000000 0.000000 0.000000 0.000000 0.000000 0.000000 0.000000 0.000000 6.639028 11.173929 19.811777 0.179699 1.078905 8.287714 -3.278763 9.944415 15.361016 1.039350 -1.421712 -17.136322 0.000000 0.000000 0.000000 0.000000 0.000000 0.000000 0.000000 0.000000 0.000000 
1.884115 88.000267 6.333956 0.252567 -0.408525 -16.749798 -0.672235 -0.101483 9.570129 0.143284 -0.089036 2.577199 1.954660 -1.064735 11.767406 1.413885 -0.341201 6.018684 -8.849748 4.097685 6.573055 0.033613 1.970130 -2.975450 -1.628720 -0.470456 -20.279634 0.000000 0.000000 0.000000 91.364075 -0.400882 8.179773 65.315781 -21.325380 7.551827 -0.024389 12.661036 27.621227 6.100545 26.576313 -7.482844 9.921721 -1.778588 40.197269 0.000000 0.000016 -24.252811 -0.000017 0.000053 -16.879812 0.000010 -0.000002 -0.000016 8.382327 17.156166 -8.613885 7.872902 -0.810098 -2.328209 7.611367 0.207498 -2.209028 -0.000004 0.000025 -0.000019 9.260192 7.128146 -9.621149 7.704279 -0.940197 -0.939538 7.766072 0.071083 -0.796604 0.000017 0.000073 0.000010 15.124792 -9.222733 -10.818724 9.299109 1.907993 1.400072 9.155236 -0.114689 1.068755 -0.000018 -0.000686 0.000018 21.416582 -25.976864 -13.694887 9.740028 3.642436 4.289421 9.614371 -0.400577 3.633432 -0.000834 0.000000 0.000026 0.000000 0.000000 0.000000 0.000000 0.000000 0.000000 -92.213783 0.765818 12.470924 -56.893234 38.444839 8.607168 -1.175398 -13.432912 42.593163 -8.935586 -7.002893 -14.401801 -10.492476 1.862514 39.912949 0.000016 0.000033 -25.580610 -0.000039 -0.000021 -17.716448 -0.000161 0.000008 0.000226 -15.377815 16.933195 -9.944337 -8.114191 -0.779370 2.524690 -8.003827 0.214734 2.369113 -0.000019 0.000022 -0.000003 -13.322303 7.026731 -11.132996 -8.145485 -0.937709 0.984290 -8.016007 0.073544 0.845688 -0.000604 -0.000038 0.000014 -12.347573 -9.111726 -11.169655 -9.595387 1.918615 -1.432457 -9.549037 -0.105132 -1.097013 0.000020 0.000009 -0.000003 -9.222172 -26.417812 -14.137461 -9.872396 3.678003 -4.143619 -9.915215 -0.343872 -3.526851 -0.000469 0.000003 -0.000045 0.000000 0.000000 0.000000 0.000000 0.000000 0.000000 -3.112829 3.937353 14.970934 -0.200466 -0.704172 13.980884 -0.739064 -0.899784 14.282537 -0.765335 0.817854 -19.554337 0.000000 0.000000 0.000000 0.000000 0.000000 0.000000 0.000000 0.000000 0.000000 6.602752 11.191880 19.859455 0.178849 1.078186 8.239046 -3.252082 9.950197 15.364605 1.038679 -1.421746 -17.126184 0.000000 0.000000 0.000000 0.000000 0.000000 0.000000 0.000000 0.000000 0.000000 
1.909255 88.000008 6.344401 0.261874 -0.422689 -16.760679 -0.682554 -0.101287 9.570125 0.151732 -0.091802 2.571236 1.942174 -1.051345 11.793696 1.417222 -0.337521 6.036186 -8.812250 4.078109 6.608524 0.030029 1.955922 -2.960720 -1.621405 -0.463156 -20.297190 0.000000 0.000000 0.000000 91.373848 -0.404298 8.165880 65.279076 -21.278038 7.610499 -0.025534 12.697365 27.747206 6.068467 26.566540 -7.460748 9.909666 -1.776650 40.203506 0.000000 0.000015 -24.222410 -0.000017 0.000053 -16.858835 0.000010 -0.000002 -0.000016 8.335608 17.158018 -8.572126 7.855535 -0.814107 -2.312721 7.591446 0.203587 -2.194755 -0.000004 0.000025 -0.000019 9.199768 7.129325 -9.599316 7.683594 -0.941839 -0.933472 7.745234 0.069725 -0.791391 0.000017 0.000072 0.000010 15.053085 -9.224125 -10.828841 9.270783 1.910349 1.392030 9.127106 -0.112964 1.062563 -0.000018 -0.000713 0.000018 21.346825 -25.980951 -13.726643 9.711676 3.648846 4.268391 9.588018 -0.394994 3.616136 -0.000843 0.000000 0.000026 0.000000 0.000000 0.000000 0.000000 0.000000 0.000000 -92.220352 0.771097 12.462217 -56.883152 38.426689 8.596974 -1.178091 -13.436891 42.565041 -8.927095 -7.044535 -14.448729 -10.481514 1.861219 39.918858 0.000016 0.000033 -25.554317 -0.000041 -0.000021 -17.697001 -0.000175 0.000008 0.000213 -15.334288 16.935066 -9.954696 -8.101148 -0.781956 2.513165 -7.990648 0.212200 2.358131 -0.000019 0.000019 -0.000003 -13.271735 7.028032 -11.141953 -8.129418 -0.938797 0.979548 -8.002249 0.072699 0.841788 -0.000588 -0.000038 0.000014 -12.270105 -9.114025 -11.180739 -9.568952 1.920321 -1.426401 -9.522827 -0.103956 -1.092492 0.000016 0.000009 -0.000003 -9.120847 -26.422115 -14.149428 -9.839016 3.682414 -4.127563 -9.883521 -0.340489 -3.513840 -0.000472 0.000003 -0.000045 0.000000 0.000000 0.000000 0.000000 0.000000 0.000000 -3.146999 3.946692 14.993211 -0.201337 -0.707059 13.986645 -0.706489 -0.878456 14.263340 -0.767157 0.821016 -19.552546 0.000000 0.000000 0.000000 0.000000 0.000000 0.000000 0.000000 0.000000 0.000000 6.568804 11.212654 19.908415 0.177972 1.077431 8.190133 -3.226310 9.958200 15.368028 1.037848 -1.421502 -17.115534 0.000000 0.000000 0.000000 0.000000 0.000000 0.000000 0.000000 0.000000 0.000000 
1.933353 87.999695 6.354858 0.270153 -0.441630 -16.771404 -0.693167 -0.101288 9.569570 0.158828 -0.094585 2.564673 1.932372 -1.040709 11.821468 1.420901 -0.334664 6.052623 -8.773442 4.060768 6.643839 0.027119 1.945002 -2.946068 -1.614634 -0.455830 -20.314857 0.000000 0.000000 0.000000 91.382439 -0.407364 8.152142 65.246994 -21.225216 7.663684 -0.027048 12.738749 27.885178 6.037121 26.556032 -7.438006 9.897083 -1.774644 40.210064 0.000000 0.000015 -24.190573 -0.000017 0.000053 -16.836786 0.000010 -0.000002 -0.000016 8.288465 17.159901 -8.531886 7.838236 -0.818221 -2.297072 7.571711 0.199578 -2.180274 -0.000004 0.000025 -0.000019 9.138869 7.130530 -9.579179 7.662997 -0.943542 -0.927306 7.724361 0.068323 -0.786092 0.000017 0.000071 0.000010 14.980387 -9.225640 -10.842200 9.242175 1.912798 1.383865 9.098558 -0.111178 1.056260 -0.000019 -0.000736 0.000018 21.276398 -25.985573 -13.763318 9.683070 3.655547 4.246932 9.561273 -0.389192 3.598482 -0.000852 0.000000 0.000026 0.000000 0.000000 0.000000 0.000000 0.000000 0.000000 -92.226387 0.777004 12.454435 -56.879501 38.409344 8.582320 -1.179374 -13.443525 42.548149 -8.913877 -7.086759 -14.492372 -10.471656 1.860027 39.924236 0.000016 0.000033 -25.530952 -0.000043 -0.000021 -17.679560 -0.000189 0.000008 0.000200 -15.299266 16.937010 -9.966325 -8.092855 -0.784533 2.502050 -7.982038 0.209696 2.347423 -0.000019 0.000018 -0.000003 -13.228877 7.029386 -11.152053 -8.118072 -0.939893 0.974919 -7.993129 0.071860 0.837979 -0.000571 -0.000038 0.000013 -12.200075 -9.116536 -11.193842 -9.547462 1.922076 -1.420524 -9.501533 -0.102777 -1.088072 0.000012 0.000009 -0.000003 -9.025838 -26.427147 -14.164536 -9.809951 3.686908 -4.112104 -9.855881 -0.337126 -3.501153 -0.000475 0.000003 -0.000045 0.000000 0.000000 0.000000 0.000000 0.000000 0.000000 -3.179871 3.958253 15.015815 -0.202183 -0.709966 13.990052 -0.674778 -0.854289 14.246219 -0.768963 0.824343 -19.551138 0.000000 0.000000 0.000000 0.000000 0.000000 0.000000 0.000000 0.000000 0.000000 6.536851 11.235641 19.958021 0.177054 1.076572 8.141167 -3.201127 9.968416 15.372028 1.036732 -1.420986 -17.104532 0.000000 0.000000 0.000000 0.000000 0.000000 0.000000 0.000000 0.000000 0.000000 
